<?xml version="1.0" encoding="UTF-8"?>
<svg width="217px" height="30px" viewBox="0 0 217 30" version="1.1" xmlns="http://www.w3.org/2000/svg" xmlns:xlink="http://www.w3.org/1999/xlink">
    <!-- Generator: Sketch 59 (86127) - https://sketch.com -->
    <title>logo</title>
    <desc>Created with Sketch.</desc>
    <g id="新页面" stroke="none" stroke-width="1" fill="none" fill-rule="evenodd">
        <g id="01三维数据生产面积全国地图展示" transform="translate(-63.000000, -38.000000)" fill="#BAC0C7">
            <g id="logo" transform="translate(63.000000, 38.000000)">
                <polygon id="Fill-1" points="202.58019 0.966555 191.75724 11.280105 191.75724 0.966555 184.24494 0.966555 184.24494 29.233755 191.75724 29.233755 191.75724 19.938555 204.48999 29.233755 216.20394 29.233755 197.61444 15.354405 212.25699 0.966555"></polygon>
                <path d="M128.602215,24.77664 C122.744565,24.90399 121.217265,19.93824 121.344165,14.71779 C121.471515,10.89819 122.108265,4.91364 128.474865,4.78629 C135.350415,4.65894 135.859815,11.02554 135.859815,14.84514 C135.859815,19.04724 135.223065,24.52239 128.602215,24.77664 M128.474865,0.45729 C116.633115,0.20259 113.449815,6.82344 113.322465,14.97249 C113.322465,22.86684 116.505765,29.10609 128.347515,29.23344 C140.316165,29.36079 143.499465,23.24889 143.372115,14.71779 C143.244765,6.56919 140.952915,0.58419 128.474865,0.45729" id="Fill-2"></path>
                <polygon id="Fill-4" points="97.151895 22.73976 97.151895 0.96651 88.875495 0.96651 88.875495 29.23371 114.977745 29.23371 110.776095 22.73976"></polygon>
                <path d="M69.64893,14.20866 C66.30408,14.32386 61.91523,14.12586 61.11783,14.08761 L61.11783,5.16816 L69.39423,5.16816 C73.34163,5.16816 75.25143,6.44166 75.37833,9.75231 C75.50613,12.93516 73.59588,14.08131 69.64893,14.20866 M73.46853,18.02826 C79.45308,18.02826 83.27313,14.46336 83.27313,10.00701 C83.14578,3.51306 78.94368,1.34811 70.41303,1.34811 L53.22348,1.34811 L53.22348,29.36061 L61.11783,29.36061 L61.11783,14.23881 L73.21383,29.23371 L83.40048,29.23371 C82.12698,27.70551 73.46853,17.90091 73.46853,18.02826" id="Fill-6"></path>
                <polygon id="Fill-8" points="38.58075 29.23335 46.85715 29.23335 46.85715 0.96615 38.58075 0.96615"></polygon>
                <path d="M163.99926,24.77664 C157.63311,24.64974 156.86901,18.41049 156.74166,14.71779 C156.61431,10.89819 157.88781,4.65894 163.87236,4.78629 C170.74791,4.78629 171.25731,11.02554 171.25731,14.84514 C171.25731,19.04724 170.62056,24.77664 163.99926,24.77664 M163.87236,0.45729 C152.03061,0.20259 148.84731,6.82344 148.71996,14.97249 C148.71996,22.86684 151.39386,29.23344 163.74501,29.23344 C176.35041,29.23344 178.76961,22.86684 178.76961,14.71779 C178.76961,6.56919 176.35041,0.58419 163.87236,0.45729" id="Fill-10"></path>
                <path d="M29.158155,21.5937 C27.049005,21.5937 25.338555,23.30415 25.338555,25.4133 C25.338555,27.52335 27.049005,29.2338 29.158155,29.2338 C31.267755,29.2338 32.978205,27.52335 32.978205,25.4133 C32.978205,23.30415 31.267755,21.5937 29.158155,21.5937" id="Fill-11"></path>
                <polygon id="Fill-12" points="21.9006 0.96642 14.3883 0.96642 13.49685 0.96642 12.8601 0.96642 0 29.23362 9.0405 29.23362 17.76735 10.05102 20.49975 15.86367 20.6271 16.11837 21.00915 16.11837 29.1582 16.11837"></polygon>
            </g>
        </g>
    </g>
</svg>